<svg version="1.2" xmlns="http://www.w3.org/2000/svg" viewBox="0 0 512 512" width="512" height="512">
	<title>FIleManager-svg</title>
	<style>
		.s0 { fill: #d77dfb;stroke: #06cb66;stroke-width: 0 } 
		.s1 { fill: #9257d7;stroke: #06cb66;stroke-width: 0 } 
		.s2 { fill: #b66bfb;stroke: #06cb66;stroke-width: 0 } 
		.s3 { fill: #b66bfb;stroke: #b0a8a1;stroke-width: 0 } 
		.s4 { fill: #9257d7;stroke: #b0a8a1;stroke-width: 0 } 
		.s5 { fill: #e286fb;stroke: #06cb66;stroke-width: 0 } 
		.s6 { fill: #e286fb;stroke: #b0a8a1;stroke-width: 0 } 
		.s7 { fill: #e286fb;stroke: #000000;stroke-width: 0 } 
	</style>
	<g id="LGaW_D2S66fh0ZLI2C58P">
		<path id="Layer" class="s0" d="m274.1 206.4h195.5v105.7h-195.5z"/>
	</g>
	<g id="Daws3JseMe0id8ZyOLtRP">
		<path id="Layer" class="s1" d="m298.5 380.5h170.9v69.4h-170.9z"/>
	</g>
	<g id="6CgpziCir90lEk9uz67SH">
		<path id="Layer" class="s2" d="m277.7 303.5h191.8v87.1h-191.8z"/>
	</g>
	<g id="er-q2XLzm63blJ_nKRSKE">
		<path id="Layer" class="s1" d="m291.8 390.6h151v87h-151z"/>
	</g>
	<g id="-pUWMPTgJ8Yv9Bc5edH1X">
		<path id="Layer" class="s2" d="m71.8 390.6h226.3v87h-226.3z"/>
	</g>
	<g id="OxaQz1J2NsDI0Ei6dbIN0">
		<path id="Layer" class="s3" d="m71.8 477.6c-16.4 0-29.7-13.2-29.7-29.7 0-16.4 13.3-29.7 29.7-29.7 16.4 0 29.7 13.3 29.7 29.7 0 16.5-13.3 29.7-29.7 29.7z"/>
	</g>
	<g id="WMin3Qa5ex7YiU7StV443">
		<path id="Layer" class="s2" d="m42 370.9h256.2v77.1h-256.2z"/>
	</g>
	<g id="s2qh0Ft8gEr_KrPHezXQf">
		<path id="Layer" class="s0" d="m42.1 287.5h256.2v103h-256.2z"/>
	</g>
	<g id="juJGX88dYgh9X1YbQ4Gl9">
		<path id="Layer" class="s4" d="m439.8 477.6c-16.4 0-29.7-13.2-29.7-29.7 0-16.4 13.3-29.7 29.7-29.7 16.5 0 29.7 13.3 29.7 29.7 0 16.5-13.2 29.7-29.7 29.7z"/>
	</g>
	<g id="tNueAX3wvYGuFErcaFgDu">
		<path id="Layer" class="s5" d="m291.8 152.1h177.7v64.4h-177.7z"/>
	</g>
	<g id="l0yxnbMaa27wKw82mchXn">
		<path id="Layer" class="s5" d="m295.7 127.3h141v64.4h-141z"/>
	</g>
	<g id="qtSrqgyp24avaHxtHeJdy">
		<path id="Layer" class="s6" d="m439.8 186.7c-16.4 0-29.7-13.3-29.7-29.7 0-16.4 13.3-29.7 29.7-29.7 16.5 0 29.7 13.3 29.7 29.7 0 16.4-13.2 29.7-29.7 29.7z"/>
	</g>
	<g id="5eow9ojRhbG4QgFKehYC7">
		<path id="Layer" class="s5" d="m42.2 65h255.8v238.5h-255.8z"/>
	</g>
	<g id="JUYX7pOqnr9T408LcSLA8">
		<path id="Layer" class="s6" d="m71.8 94.4c-16.4 0-29.7-13.3-29.7-29.7 0-16.4 13.3-29.7 29.7-29.7 16.4 0 29.7 13.3 29.7 29.7 0 16.4-13.3 29.7-29.7 29.7z"/>
	</g>
	<g id="JwXnhWmJV1cFiWeGvbH9t">
		<path id="Layer" class="s6" d="m268.3 94.4c-16.4 0-29.7-13.3-29.7-29.7 0-16.4 13.3-29.7 29.7-29.7 16.5 0 29.7 13.3 29.7 29.7 0 16.4-13.2 29.7-29.7 29.7z"/>
	</g>
	<g id="Fx0-aAPqjMtARxBpHFgd0">
		<path id="Layer" class="s5" d="m69.4 35h199.1v64.4h-199.1z"/>
	</g>
	<g id="-TyDD1xVncosveRXdHG8w">
		<path id="Layer" class="s7" d="m298.3 103.4l0.4 2.5 0.7 1.9 0.9 2.1 1.3 2.7 1.1 1.8 1.6 2.2 1.7 1.9 2 1.9 2.3 1.8 2.6 1.6 2.7 1.4 2.6 1 3.1 0.8 6.3 0.6h-29.7v-29.8z"/>
	</g>
</svg>