<svg xmlns="http://www.w3.org/2000/svg" width="500" height="500" version="1.2">
  <style>
    .s1{fill:#d77dfb}.s2{fill:#b66bfb}
  </style>
  <path id="Layer" fill="#e286fb" d="M298 95.3c0 25.1 20.4 45.5 45.5 45.5h61c25.1 0 45.5 20.3 45.5 45.5v218c0 25.1-20.4 45.5-45.5 45.5h-309c-25.1 0-45.5-20.4-45.5-45.5v-309c0-25.2 20.4-45.5 45.5-45.5h157c25.1 0 45.5 20.3 45.5 45.5z"/>
  <path d="M298 217.1h152V294H298z" class="s1"/>
  <path d="M298 294h152v77H298z" class="s2"/>
  <path fill="#9257d7" d="M410.6 449.8h-73.2c-21.8 0-39.4-17.7-39.4-39.4 0-21.8 17.6-39.4 39.4-39.4h73.2c21.7 0 39.4 17.6 39.4 39.4 0 21.7-17.7 39.4-39.4 39.4zM298 370.9h152v39.4H298zm0 39.4h97.7v39.4H298z"/>
  <path d="M50 294h248v77H50z" class="s1"/>
  <path d="M258.6 449.8H89.4c-21.8 0-39.4-17.7-39.4-39.4 0-21.8 17.6-39.4 39.4-39.4h169.2c21.7 0 39.4 17.6 39.4 39.4 0 21.7-17.7 39.4-39.4 39.4zM50 371h248v39.4H50zm122.1 39.3H298v39.4H172.1z" class="s2"/>
</svg>
