<?xml version="1.0" encoding="utf-8"?>
<!-- Generator: Adobe Illustrator 26.1.0, SVG Export Plug-In . SVG Version: 6.00 Build 0)  -->
<svg version="1.1" id="Ebene_1" xmlns="http://www.w3.org/2000/svg" xmlns:xlink="http://www.w3.org/1999/xlink" x="0px" y="0px"
	 viewBox="0 0 500 500" style="enable-background:new 0 0 500 500;" xml:space="preserve">
<style type="text/css">
	.st0{fill:#E286FB;}
	.st1{fill:#D77DFB;}
	.st2{fill:#B66BFB;}
	.st3{fill:#9257D7;}
	.st4{fill:none;}
</style>
<path class="st0" d="M298,95.5L298,95.5c0,25.13,20.37,45.5,45.5,45.5h61c25.13,0,45.5,20.37,45.5,45.5v218
	c0,25.13-20.37,45.5-45.5,45.5h-309C70.37,450,50,429.63,50,404.5v-309C50,70.37,70.37,50,95.5,50l157,0
	C277.63,50,298,70.37,298,95.5z"/>
<path class="st0" d="M298,186.5L298,186.5c0,25.13,20.37,45.5,45.5,45.5h61c25.13,0,45.5,20.37,45.5,45.5V385L50,374V186.5
	c0-25.13,20.37-45.5,45.5-45.5h157C277.63,141,298,161.37,298,186.5z"/>
<path class="st1" d="M298,140.5L298,140.5c0,25.13,20.37,45.5,45.5,45.5h61c25.13,0,45.5,20.37,45.5,45.5V339l-400,1V140.5
	C50,115.37,70.37,95,95.5,95h157C277.63,95,298,115.37,298,140.5z"/>
<path class="st2" d="M298,185.5L298,185.5c0,25.13,20.37,45.5,45.5,45.5h61c25.13,0,45.5,20.37,45.5,45.5V384l-400,1V185.5
	c0-25.13,20.37-45.5,45.5-45.5h157C277.63,140,298,160.37,298,185.5z"/>
<g>
	<path class="st3" d="M298,230.75c7.69,94.45,144.31-3.45,152,91c0,0,0,82.25,0,82.25H50c0,0,0.03-135.39,0-173.25
		c0-25.13,20.37-45.5,45.5-45.5l157,0C277.63,185.25,298,205.62,298,230.75z"/>
	<path class="st3" d="M450,404c0,25.13-20.37,45.5-45.5,45.5h-309C70.37,449.5,50,429.13,50,404H450z"/>
</g>
</svg>
