<svg xmlns="http://www.w3.org/2000/svg" xml:space="preserve" id="Ebene_1" x="0" y="0" version="1.1" viewBox="0 0 500 500">
  <style>
    .st1{fill:#d77dfb}.st2{fill:#b66bfb}.st3{fill:#9257d7}
  </style>
  <path fill="none" d="m341.99 190.76.99 103h157v-103z"/>
  <path fill="#e286fb" d="M297.98 95.26c0 25.13 20.37 45.5 45.5 45.5h61c25.13 0 45.5 20.37 45.5 45.5v218c0 25.13-20.37 45.5-45.5 45.5h-309c-25.13 0-45.5-20.37-45.5-45.5v-309c0-25.13 20.37-45.5 45.5-45.5h157c25.13 0 45.5 20.37 45.5 45.5z"/>
  <path d="M297.98 217.09h152v76.92h-152z" class="st1"/>
  <path d="M297.98 294.04h152v76.92h-152z" class="st2"/>
  <path d="M410.58 449.76h-73.19c-21.76 0-39.4-17.64-39.4-39.4 0-21.76 17.64-39.4 39.4-39.4h73.19c21.76 0 39.4 17.64 39.4 39.4 0 21.76-17.64 39.4-39.4 39.4z" class="st3"/>
  <path d="M297.98 370.95h152v39.4h-152zM297.98 410.35h97.67v39.4h-97.67z" class="st3"/>
  <path d="M49.98 294.04h248v76.92h-248z" class="st1"/>
  <path d="M258.58 449.76H89.39c-21.76 0-39.4-17.64-39.4-39.4 0-21.76 17.64-39.4 39.4-39.4h169.19c21.76 0 39.4 17.64 39.4 39.4 0 21.76-17.64 39.4-39.4 39.4z" class="st2"/>
  <path d="M49.98 370.98h248v39.37h-248zM172.1 410.38h125.89v39.37H172.1z" class="st2"/>
</svg>
