<?xml version="1.0" encoding="utf-8"?>
<!-- Generator: Adobe Illustrator 26.1.0, SVG Export Plug-In . SVG Version: 6.00 Build 0)  -->
<svg version="1.1" id="Ebene_1" xmlns="http://www.w3.org/2000/svg" xmlns:xlink="http://www.w3.org/1999/xlink" x="0px" y="0px"
	 viewBox="0 0 500 500" style="enable-background:new 0 0 500 500;" xml:space="preserve">
<style type="text/css">
	.st0{fill:#E286FB;}
	.st1{fill:#D77DFB;}
	.st2{fill:#B66BFB;}
	.st3{fill:#9257D7;}
	.st4{fill:none;}
</style>
<polygon class="st4" points="341.99,190.76 342.98,293.76 499.98,293.76 499.98,190.76 "/>
<path class="st0" d="M297.98,95.26L297.98,95.26c0,25.13,20.37,45.5,45.5,45.5h61c25.13,0,45.5,20.37,45.5,45.5v31.42v76.08v78v32.5
	c0,25.13-20.37,45.5-45.5,45.5h-309c-25.13,0-45.5-20.37-45.5-45.5v-309c0-25.13,20.37-45.5,45.5-45.5l157,0
	C277.61,49.76,297.98,70.13,297.98,95.26z"/>
<rect x="297.98" y="217.09" class="st1" width="152" height="76.92"/>
<rect x="297.98" y="294.04" class="st2" width="152" height="76.92"/>
<path class="st3" d="M410.58,449.76h-73.19c-21.76,0-39.4-17.64-39.4-39.4v0c0-21.76,17.64-39.4,39.4-39.4h73.19
	c21.76,0,39.4,17.64,39.4,39.4v0C449.98,432.12,432.34,449.76,410.58,449.76z"/>
<rect x="297.98" y="370.95" class="st3" width="152" height="39.4"/>
<rect x="297.98" y="410.35" class="st3" width="97.67" height="39.4"/>
<rect x="49.98" y="294.04" class="st1" width="248" height="76.92"/>
<path class="st2" d="M258.58,449.76H89.39c-21.76,0-39.4-17.64-39.4-39.4v0c0-21.76,17.64-39.4,39.4-39.4h169.19
	c21.76,0,39.4,17.64,39.4,39.4v0C297.98,432.12,280.34,449.76,258.58,449.76z"/>
<rect x="49.98" y="370.98" class="st2" width="248" height="39.37"/>
<rect x="172.1" y="410.38" class="st2" width="125.89" height="39.37"/>
</svg>
