<svg xmlns="http://www.w3.org/2000/svg" xml:space="preserve" id="Ebene_1" x="0" y="0" version="1.1" viewBox="0 0 500 500">
  <style>
    .st0{fill:#e286fb}.st3{fill:#9257d7}
  </style>
  <path d="M298 95.5c0 25.13 20.37 45.5 45.5 45.5h61c25.13 0 45.5 20.37 45.5 45.5v218c0 25.13-20.37 45.5-45.5 45.5h-309C70.37 450 50 429.63 50 404.5v-309C50 70.37 70.37 50 95.5 50h157c25.13 0 45.5 20.37 45.5 45.5z" class="st0"/>
  <path d="M298 186.5c0 25.13 20.37 45.5 45.5 45.5h61c25.13 0 45.5 20.37 45.5 45.5V385L50 374V186.5c0-25.13 20.37-45.5 45.5-45.5h157c25.13 0 45.5 20.37 45.5 45.5z" class="st0"/>
  <path fill="#d77dfb" d="M298 140.5c0 25.13 20.37 45.5 45.5 45.5h61c25.13 0 45.5 20.37 45.5 45.5V339l-400 1V140.5C50 115.37 70.37 95 95.5 95h157c25.13 0 45.5 20.37 45.5 45.5z"/>
  <path fill="#b66bfb" d="M298 185.5c0 25.13 20.37 45.5 45.5 45.5h61c25.13 0 45.5 20.37 45.5 45.5V384l-400 1V185.5c0-25.13 20.37-45.5 45.5-45.5h157c25.13 0 45.5 20.37 45.5 45.5z"/>
  <path d="M298 230.75c7.69 94.45 144.31-3.45 152 91V404H50s.03-135.39 0-173.25c0-25.13 20.37-45.5 45.5-45.5h157c25.13 0 45.5 20.37 45.5 45.5zM450 404c0 25.13-20.37 45.5-45.5 45.5h-309C70.37 449.5 50 429.13 50 404h400z" class="st3"/>
</svg>
