<svg xmlns="http://www.w3.org/2000/svg" width="500" height="500" version="1.2">
  <path fill="#e286fb" d="M298 95.5c0 25.1 20.4 45.5 45.5 45.5h61c25.1 0 45.5 20.4 45.5 45.5v218c0 25.1-20.4 45.5-45.5 45.5h-309C70.4 450 50 429.6 50 404.5v-309C50 70.4 70.4 50 95.5 50h157c25.1 0 45.5 20.4 45.5 45.5z"/>
  <path fill="#d77dfb" d="M298 140.5c0 25.1 20.4 45.5 45.5 45.5h61c25.1 0 45.5 20.4 45.5 45.5V339l-400 1V140.5C50 115.4 70.4 95 95.5 95h157c25.1 0 45.5 20.4 45.5 45.5z"/>
  <path fill="#b66bfb" d="M298 185.5c0 25.1 20.4 45.5 45.5 45.5h61c25.1 0 45.5 20.4 45.5 45.5V384l-400 1V185.5c0-25.1 20.4-45.5 45.5-45.5h157c25.1 0 45.5 20.4 45.5 45.5z"/>
  <path fill="#9257d7" d="M298 230.8c7.7 94.4 144.3-3.5 152 90.9V404H50V230.7c0-25.1 20.4-45.5 45.5-45.5h157c25.1 0 45.5 20.4 45.5 45.5zm152 173.3c0 25.1-20.4 45.5-45.5 45.5h-309c-25.1 0-45.5-20.4-45.5-45.5z"/>
</svg>
