<svg version="1.2" xmlns="http://www.w3.org/2000/svg" viewBox="0 0 500 500" width="500" height="500">
	<title>FileManager-svg</title>
	<style>
		.s0 { fill: #e286fb } 
		.s1 { fill: #b66bfb } 
		.s2 { fill: #9257d7 } 
	</style>
	<path id="Layer" class="s0" d="m306.9 69.3c0 29.5 24.2 53.4 53.9 53.4h72.3c29.7 0 53.9 23.9 53.9 53.3v255.7c0 29.4-24.2 53.3-53.9 53.3h-366.2c-29.7 0-53.9-23.9-53.9-53.3v-362.4c0-29.4 24.2-53.3 53.9-53.3h186.1c29.7 0 53.9 23.9 53.9 53.3z"/>
	<path id="Layer" class="s1" d="m306.9 148.9c0 29.4 24.2 53.3 53.9 53.3h72.3c29.7 0 53.9 23.9 53.9 53.4v126l-474 1.2v-233.9c0-29.5 24.2-53.4 53.9-53.4h186.1c29.7 0 53.9 23.9 53.9 53.4z"/>
	<path id="Layer" class="s2" d="m306.9 228c9.1 110.7 171-4.1 180.1 106.6v96.5h-474v-203.2c0-29.5 24.2-53.4 53.9-53.4h186.1c29.7 0 53.9 23.9 53.9 53.4zm180.1 203.2c0 29.4-24.2 53.3-53.9 53.3h-366.2c-29.7 0-53.9-23.9-53.9-53.3z"/>
</svg>